<?xml version="1.0" encoding="UTF-8" standalone="no"?>
<svg width="64px" height="50px" viewBox="0 0 64 50" version="1.1" xmlns="http://www.w3.org/2000/svg" xmlns:xlink="http://www.w3.org/1999/xlink">
    <!-- Generator: sketchtool 41.2 (35397) - http://www.bohemiancoding.com/sketch -->
    <title>DAA227E0-D70F-4EF3-ACC1-456FB2D377B2</title>
    <desc>Created with sketchtool.</desc>
    <defs></defs>
    <g id="Symbols" stroke="none" stroke-width="1" fill="none" fill-rule="evenodd">
        <g id="header-zmani" transform="translate(-33.000000, -30.000000)">
            <g id="cwt-logo" transform="translate(33.000000, 30.000000)">
                <path d="M48.3833877,44.4778111 C49.819352,44.0370315 55.4849315,42.022039 59.5632094,40.6935782 C62.1916069,39.8373813 63.1970428,41.4168416 63.1970428,42.6036232 L63.1970428,47.2982759 C63.0178735,46.3310095 61.5436399,45.3952274 59.6406175,45.982059 C56.6956295,46.8907296 51.2683627,48.966067 48.4573168,49.8038981 C47.1370298,50.1957021 46.5334203,49.684083 46.3977386,48.4614443 C46.0420091,45.2657921 44.8713199,45.5176662 42.0976734,46.3012744 C40.1589911,46.8487506 35.9493803,48.576012 33.1374647,49.3744878 C32.2398782,49.6298601 30.6308328,49.6298601 30.6308328,47.9655672 L30.6308328,43.0566467 C30.7604262,43.4668166 31.4127419,44.5372814 32.8982822,44.1323588 C34.8517504,43.5997501 39.4988476,41.8165167 41.9819961,41.0005497 C44.4216569,40.1985757 46.0037399,40.2256872 46.3733855,41.9468266 C46.7552077,43.7274363 46.7030224,44.9955522 48.3833877,44.4778111" id="Fill-1" fill="#CC1E25"></path>
                <path d="M15.1764297,9.51471764 C15.1146771,10.2554723 15.0990215,10.4749875 15.0677104,11.0731884 L14.9737769,11.1833833 C14.5815177,11.388031 13.5934768,11.8769115 12.0113938,11.8769115 C8.57760383,11.8769115 6.5571646,9.59342829 6.5571646,6.08205897 C6.5571646,5.30982009 6.61891716,3.40414793 7.98269189,1.90864568 C9.31515547,0.443753123 11.0068276,0.287206397 12.1201131,0.287206397 C13.5621657,0.287206397 14.4727984,0.601174413 14.987693,0.79007996 L15.051185,0.916016992 C14.9737769,1.4836082 14.9572516,1.64102949 14.9102848,2.31881559 L14.7693846,2.38090955 C14.4562731,2.17538731 13.6569689,1.67251374 12.2766688,1.67251374 C9.77003696,1.67251374 8.40713199,3.40414793 8.40713199,6.04970015 C8.40713199,9.02671164 10.0196564,10.412019 12.1836051,10.412019 C13.6569689,10.412019 14.5815177,9.79807596 15.0677104,9.45174913 L15.1764297,9.51471764 Z M22.3541639,8.39632684 C22.3541639,10.3483508 22.36808,10.5223888 22.4472277,11.5456272 L22.36808,11.6243378 C21.6322679,11.6392054 21.507893,11.6558221 20.7868667,11.6873063 L20.7233746,11.5928536 L20.7390302,11.0252624 C20.442444,11.2622689 19.7362035,11.8289855 18.5455099,11.8289855 C16.9790824,11.8289855 15.8814525,10.7576462 15.8814525,9.19917541 C15.8814525,7.08885557 17.6357469,6.41194403 20.4589693,6.08135932 L20.7233746,6.0490005 C20.7233746,5.62396302 20.7233746,5.32573713 20.5833442,5.07298851 C20.4250489,4.78963018 20.0658404,4.49052974 19.281322,4.49052974 C18.2637095,4.49052974 17.557469,4.80537231 16.8999348,5.08873063 L16.7755599,5.01089455 C16.8051316,4.28588206 16.8051316,4.19142929 16.8216569,3.86084458 L16.9164601,3.7663918 C17.7931724,3.45067466 18.7020657,3.24690155 19.628354,3.24690155 C20.7868667,3.24690155 21.9140683,3.64045477 22.2437052,4.86834083 C22.3541639,5.309995 22.3541639,6.17581209 22.3541639,6.83698151 L22.3541639,8.39632684 Z M20.5972603,7.24715142 C19.0151772,7.48328336 17.5426832,7.70454773 17.5426832,9.10472264 C17.5426832,9.18430785 17.5426832,10.5372564 19.0317025,10.5372564 C20.0023483,10.5372564 20.5676886,10.002024 20.7390302,9.8446027 L20.7390302,7.2147926 L20.5972603,7.24715142 Z M27.6194825,5.08925537 C27.462057,5.02628686 27.2576647,4.94670165 26.9915199,4.94670165 C26.6931942,4.94670165 26.4740161,5.05777111 26.3331159,5.15309845 C25.6903675,5.60962019 25.6903675,6.30227386 25.6903675,7.93858071 C25.6903675,9.7191904 25.738204,10.647976 25.7999565,11.5295352 L25.7216786,11.6397301 C24.9849967,11.6397301 24.828441,11.6563468 24.0752337,11.6869565 L23.9978256,11.5925037 C24.0134812,10.3961019 24.0291368,9.30902049 24.0291368,7.8450025 C24.0291368,5.32538731 23.98217,4.67996002 23.8873668,3.76604198 L23.98217,3.65584708 C24.577082,3.54652674 24.93803,3.46694153 25.596434,3.3410045 L25.6903675,3.43545727 L25.6129593,4.77441279 C25.7999565,4.2697901 26.1922157,3.26316842 27.5246793,3.26316842 C27.7282018,3.26316842 27.8377908,3.27803598 27.9621657,3.30952024 L28.0265275,3.40397301 C27.8699717,4.1595952 27.8377908,4.31789105 27.7282018,5.01054473 L27.6194825,5.08925537 Z M30.4542727,11.6250375 C29.702805,11.6407796 29.5453794,11.6556472 28.8086975,11.6871314 L28.7295499,11.5778111 C28.7599913,10.4592454 28.8086975,9.04157921 28.8086975,6.01909045 C28.8086975,3.8458021 28.8086975,2.44037981 28.6504023,0.426261869 L28.7295499,0.330934533 C29.4984127,0.204122939 29.6549685,0.173513243 30.4386171,0.000349825087 L30.5316808,0.110544728 C30.4220918,2.17276362 30.4220918,3.32631184 30.4220918,5.3894053 C30.4220918,8.83693153 30.4699282,10.0333333 30.5473364,11.5297101 L30.4542727,11.6250375 Z M35.5141553,6.85298601 C36.1421179,7.05850825 37.5685149,7.54563968 37.5685149,9.21605447 C37.5685149,9.84486507 37.3336812,10.5532609 36.6909328,11.0727511 C35.8594477,11.7820215 34.7479017,11.8292479 34.1825614,11.8292479 C33.3371603,11.8292479 32.6317895,11.6718266 32.0360078,11.4356947 C31.9585997,11.4042104 31.8794521,11.3727261 31.8011742,11.3412419 L31.7228963,11.1986882 C31.7846488,10.5856197 31.7846488,10.506909 31.8150902,9.87634933 L31.971646,9.83087206 C32.2551859,10.0503873 32.9449011,10.5856197 34.15212,10.5856197 C35.3897804,10.5856197 35.8437921,9.89296602 35.8437921,9.40408546 C35.8437921,8.67994753 35.1697326,8.44294103 34.2138726,8.12809845 L33.7120244,7.9558096 C33.0710154,7.75028736 31.6594042,7.29464018 31.6594042,5.67232634 C31.6594042,4.05001249 33.0710154,3.24716392 34.8261796,3.24716392 C35.9846923,3.24716392 36.7996521,3.57774863 37.083192,3.68881809 L37.1597304,3.79813843 C37.0979778,4.3805972 37.083192,4.44444028 37.0362253,5.04176662 L36.8944553,5.1056097 C36.5021961,4.85373563 35.8916286,4.47592454 34.8722766,4.47592454 C34.6522287,4.47592454 34.4339204,4.4907921 34.1990868,4.55376062 C33.7294194,4.67969765 33.3371603,5.01028236 33.3371603,5.49828836 C33.3371603,6.17607446 33.9799087,6.38072214 34.9514242,6.67982259 L35.5141553,6.85298601 Z M45.8570124,8.94721389 C45.6839313,9.71945277 45.3560339,10.3333958 44.8393999,10.8528861 C44.148815,11.5455397 43.2242661,11.8131559 42.127506,11.8131559 C40.7158948,11.8131559 39.8235269,11.2779235 39.3225484,10.7566842 C38.2553599,9.67135182 38.2414438,8.06565467 38.2414438,7.54441529 C38.2414438,6.94708896 38.2718852,5.40436032 39.3225484,4.34876312 C39.7600348,3.89224138 40.668928,3.24593953 42.2362253,3.24593953 C43.3016743,3.24593953 44.3523375,3.59314093 45.0420526,4.37937281 C45.7622092,5.21545477 45.9657317,6.3174038 45.9979126,7.42022739 C45.9979126,7.95545977 45.9657317,8.47495002 45.8570124,8.94721389 Z M43.8357034,5.34051724 C43.5373777,4.85338581 43.0355295,4.44409045 42.1588171,4.44409045 C41.8613612,4.44409045 40.9829093,4.47470015 40.4349641,5.35713393 C40.0122635,6.00256122 39.964427,6.9156047 39.964427,7.57764868 C39.964427,8.20733383 39.9792129,9.79816342 41.2186127,10.426974 C41.5004131,10.5695277 41.8274407,10.6324963 42.1422918,10.6324963 C42.7232877,10.6324963 43.4756251,10.4435907 43.9296369,9.57777361 C44.2897152,8.86850325 44.3062405,7.81290605 44.2897152,7.4831959 C44.2897152,7.08964268 44.2270928,6.03317091 43.8357034,5.34051724 Z M54.0767123,11.6245127 C53.3226354,11.6402549 53.2295716,11.6402549 52.5076756,11.6883558 L52.3980865,11.5781609 C52.3980865,11.4041229 52.4146119,11.2318341 52.4146119,11.0577961 C52.4293977,10.2864318 52.4293977,9.5141929 52.4293977,8.74282859 C52.4293977,6.31766617 52.4146119,6.16024488 52.336334,5.82966017 C52.0380083,4.63238381 51.1456404,4.63238381 50.9255925,4.63238381 C49.9845184,4.63238381 49.2643618,5.18423288 48.8399217,5.51481759 C48.8260057,8.25569715 48.8564471,9.68735632 48.9660361,11.53006 L48.8729724,11.6245127 C48.1049793,11.6402549 47.9945205,11.6402549 47.2413133,11.6883558 L47.1639052,11.5781609 C47.1795608,10.6957271 47.2100022,9.84477761 47.2100022,8.67986007 C47.2100022,6.16024488 47.0995434,4.82128936 47.0212655,3.76744128 L47.1169385,3.65637181 C47.9005871,3.51469265 48.0258317,3.48408296 48.7625136,3.34152924 L48.8729724,3.45172414 L48.8564471,4.27031484 C49.2643618,3.98783108 50.2358774,3.29430285 51.6153077,3.29430285 C52.0075669,3.29430285 52.4937595,3.35727136 52.9173299,3.5934033 C53.3226354,3.8304098 53.653142,4.1916042 53.8244836,4.61664168 C54.0288758,5.08890555 54.0445314,5.56116942 54.0593172,6.53805597 L54.0593172,8.38075962 C54.1080235,10.2225887 54.1219396,10.9318591 54.169776,11.53006 L54.0767123,11.6245127 Z M18.9463796,21.4336082 C18.9463796,23.3847576 18.9620352,23.5596702 19.0403131,24.5829085 L18.9620352,24.6607446 C18.2262231,24.6773613 18.1009785,24.6922289 17.3790824,24.7245877 L17.3173299,24.6283858 L17.3321157,24.0625437 C17.0346597,24.2986757 16.3301587,24.8662669 15.1377256,24.8662669 C13.5712981,24.8662669 12.4745379,23.7949275 12.4745379,22.2364568 C12.4745379,20.1261369 14.2279626,19.4483508 17.0503153,19.1177661 L17.3173299,19.0862819 C17.3173299,18.6603698 17.3173299,18.3621439 17.1746902,18.1093953 C17.0181344,17.8269115 16.6589259,17.5269365 15.8744075,17.5269365 C14.8559252,17.5269365 14.1496847,17.8426537 13.4930202,18.126012 L13.3669058,18.0464268 C13.3990868,17.324038 13.3990868,17.2278361 13.4138726,16.8972514 L13.507806,16.8036732 C14.3871276,16.4888306 15.2942814,16.2833083 16.2196999,16.2833083 C17.3790824,16.2833083 18.5071537,16.6768616 18.8367906,17.9056222 C18.9463796,18.3464018 18.9463796,19.2122189 18.9463796,19.8733883 L18.9463796,21.4336082 Z M17.1920852,20.2835582 C15.6082627,20.5196902 14.1348989,20.74008 14.1348989,22.1411294 C14.1348989,22.2198401 14.1348989,23.5745377 15.624788,23.5745377 C16.5954338,23.5745377 17.1607741,23.0384308 17.3321157,22.8818841 L17.3321157,20.252074 L17.1920852,20.2835582 Z M22.4268754,22.7548976 C22.8339204,22.8650925 24.8404436,23.353973 25.2787997,23.4956522 C25.7162861,23.6373313 27.1913894,24.0938531 27.1913894,25.8097451 C27.1913894,27.1644428 26.0467928,28.6135932 23.5401609,28.6135932 C21.2040009,28.6135932 19.9985214,27.4801599 19.9985214,26.1394553 C19.9985214,24.992029 20.78217,24.3466017 21.390998,23.8568466 C21.0622309,23.7169165 20.9535116,23.667941 20.6560557,23.5262619 L20.6238748,23.3382309 C21.1091977,22.6289605 21.2979343,22.3464768 21.6901935,21.7316592 C20.6395303,21.3074963 20.1855186,20.3297351 20.1855186,19.3694653 C20.1855186,18.9129435 20.2803218,18.4258121 20.5142857,17.9684158 C21.2674929,16.5192654 22.8339204,16.4405547 23.6958469,16.4405547 C23.9463362,16.4405547 24.2603175,16.4562969 24.5725593,16.4562969 L24.9656882,16.472039 C25.8580561,16.4886557 26.2033486,16.4886557 27.3322896,16.472039 L27.4096978,16.5664918 C27.362731,17.1025987 27.362731,17.1025987 27.3322896,17.6054723 L27.2392259,17.699925 L25.9206784,17.6054723 C26.4851489,18.0943528 26.6573603,18.7712644 26.6573603,19.3694653 C26.6573603,20.8352324 25.5449446,22.0937281 23.5853881,22.0937281 C23.3183736,22.0937281 23.1313764,22.0788606 22.8965427,22.0465017 L22.4268754,22.7548976 Z M23.4610133,17.5118941 C22.4416612,17.5118941 21.8006523,18.2683908 21.8006523,19.3073713 C21.8006523,20.0787356 22.191172,21.0556222 23.4610133,21.0556222 C24.7456404,21.0556222 25.0744075,20.0463768 25.0587519,19.3073713 C25.0430963,18.4564218 24.6360513,17.5118941 23.4610133,17.5118941 Z M22.5190694,24.2818841 C21.9702544,24.8337331 21.5936508,25.2911294 21.5936508,25.9986507 C21.5936508,26.581984 22.0633181,27.5588706 23.6627963,27.5588706 C24.9474234,27.5588706 25.5588606,26.8653423 25.5588606,26.1254623 C25.5588606,25.0856072 24.6343118,24.8494753 23.6471407,24.5818591 L22.5190694,24.2818841 Z M35.4490107,21.9843203 C35.2759295,22.7556847 34.9471624,23.3696277 34.4305284,23.8891179 C33.7399435,24.5826462 32.8162644,24.8502624 31.7195042,24.8502624 C30.3087628,24.8502624 29.4146554,24.31503 28.9145466,23.7955397 C27.8473581,22.7084583 27.8317025,21.1018866 27.8317025,20.5823963 C27.8317025,19.98507 27.8630137,18.4405922 28.9145466,17.384995 C29.3529028,16.9293478 30.261796,16.283046 31.8290933,16.283046 C32.8945423,16.283046 33.943466,16.6293728 34.6340509,17.4182284 C35.3533377,18.2516867 35.5577299,19.3536357 35.5899109,20.4564593 C35.5899109,20.9925662 35.5577299,21.5120565 35.4490107,21.9843203 Z M33.4268319,18.3784983 C33.129376,17.8896177 32.626658,17.4803223 31.7499456,17.4803223 C31.4524897,17.4803223 30.5749076,17.510932 30.0260926,18.3933658 C29.6025223,19.0396677 29.5564253,19.9518366 29.5564253,20.6147551 C29.5564253,21.2453148 29.5712111,22.8352699 30.810611,23.464955 C31.0924114,23.6066342 31.4220483,23.6696027 31.7342901,23.6696027 C32.3135464,23.6696027 33.0667536,23.4798226 33.5207654,22.6148801 C33.8817134,21.9056097 33.8956295,20.8500125 33.8817134,20.5194278 C33.8817134,20.1258746 33.8199609,19.0711519 33.4268319,18.3784983 Z M43.6503588,24.6614443 C42.8962818,24.678061 42.8032181,24.678061 42.081322,24.7244128 L41.971733,24.6150925 C41.971733,24.4401799 41.9882583,24.2687656 41.9882583,24.0947276 C42.0030441,23.3233633 42.0030441,22.5511244 42.0030441,21.7797601 C42.0030441,19.3545977 41.9882583,19.1963018 41.9099804,18.8665917 C41.6125245,17.6693153 40.7192868,17.6693153 40.499239,17.6693153 C39.5590346,17.6693153 38.838878,18.2202899 38.4144379,18.5508746 C38.3996521,21.2908796 38.4300935,22.7251624 38.5396825,24.5661169 L38.4457491,24.6614443 C37.6786258,24.678061 37.5525114,24.678061 36.800174,24.7244128 L36.7218961,24.6150925 C36.7366819,23.7326587 36.7688628,22.8817091 36.7688628,21.715917 C36.7688628,19.1963018 36.6592738,17.8582209 36.5809959,16.8034983 L36.6749293,16.6933033 C37.4594477,16.5524988 37.5994781,16.5201399 38.3370298,16.3784608 L38.4457491,16.4895302 L38.4300935,17.3072464 C38.838878,17.0238881 39.8095238,16.3321089 41.1889541,16.3321089 C41.5812133,16.3321089 42.0665362,16.3942029 42.4909763,16.6303348 C42.8962818,16.8664668 43.2267884,17.2285357 43.3989998,17.6544478 C43.6025223,18.1258371 43.6181779,18.5981009 43.6347032,19.5749875 L43.6347032,21.4176912 C43.6816699,23.2595202 43.6964558,23.9687906 43.7434225,24.5661169 L43.6503588,24.6614443 Z M3.76934116,22.3588081 C4.31032833,19.8977886 5.33315938,14.8428161 5.5192868,13.6184283 L5.61148076,13.5091079 C6.22291803,13.4951149 6.82043923,13.4951149 7.40665362,13.4636307 L7.49797782,13.5720765 C7.68497499,14.7973388 8.6991085,19.9012869 9.23922592,22.3631809 L9.25575125,22.3640555 C9.7932594,19.9179035 10.8882801,14.8498126 11.0752772,13.6158046 L11.1944336,13.5064843 C11.8554468,13.5047351 12.3581648,13.4951149 12.9348119,13.4653798 L13.0165688,13.5747001 C12.049402,16.9653798 10.6664927,23.1240505 10.4377473,24.5408421 L10.3298978,24.651037 C9.6906284,24.658908 9.17921287,24.6842704 8.56690585,24.7262494 L8.45905632,24.616929 C8.22074364,23.5123563 7.33359426,19.2427411 6.52037399,15.9080335 L6.50819743,15.9071589 C5.69497717,19.2427411 4.79652098,23.4362694 4.55820831,24.5408421 L4.45122853,24.651037 C3.84240052,24.6597826 3.24835834,24.6825212 2.68649706,24.7262494 L2.57951729,24.616929 C2.32293977,23.1415417 0.873059361,16.6662794 -0.000173950859,13.621052 L0.0815829528,13.5108571 C0.733898674,13.502986 1.39317243,13.4951149 1.85849098,13.4627561 L1.96199174,13.5712019 C2.14898891,14.8034608 3.22226571,19.910907 3.75977386,22.3588081 L3.76934116,22.3588081 Z M46.9879539,24.6614443 C46.2364862,24.678061 46.0808002,24.692054 45.3423788,24.7244128 L45.2641009,24.6150925 C45.2945423,23.4965267 45.3423788,22.0788606 45.3423788,19.0554973 C45.3423788,16.8822089 45.3423788,15.4776612 45.1849533,13.4626687 L45.2641009,13.3682159 C46.0320939,13.2414043 46.1886497,13.20992 46.9731681,13.0367566 L47.065362,13.1469515 C46.955773,15.210045 46.955773,16.3627186 46.955773,18.4258121 C46.955773,21.8742129 47.0036095,23.0706147 47.0818874,24.5661169 L46.9879539,24.6614443 Z M50.4346162,24.6614443 C49.6196564,24.678061 49.4935421,24.678061 48.725549,24.7244128 L48.6490107,24.6150925 C48.6942379,23.7798851 48.7420744,23.0548726 48.7420744,21.3074963 C48.7420744,18.2998751 48.6942379,17.7322839 48.5855186,16.8034983 L48.6629267,16.6933033 C49.3378561,16.583983 49.5726897,16.5524988 50.3563383,16.3784608 L50.5128941,16.4729135 C50.4659274,17.2915042 50.4189606,18.1415792 50.4189606,20.1731884 C50.4189606,23.102099 50.4511416,23.4965267 50.5128941,24.5661169 L50.4346162,24.6614443 Z M50.4205262,15.1157671 C49.6194825,15.1472514 49.4481409,15.1621189 48.6792781,15.2417041 L48.5853446,15.1472514 C48.6010002,14.9417291 48.6010002,14.7213393 48.6010002,14.5166917 C48.6010002,14.2333333 48.5853446,13.9805847 48.5696891,13.6657421 L48.6792781,13.5712894 C49.4942379,13.5091954 49.6368776,13.4943278 50.4205262,13.4147426 L50.5127202,13.5091954 C50.4961948,14.1554973 50.4961948,14.312044 50.5127202,15.0046977 L50.4205262,15.1157671 Z M55.7447271,23.4327711 C55.6968906,23.9522614 55.6968906,24.0624563 55.6812351,24.5198526 L55.6029572,24.6143053 C55.2733203,24.6921414 55.0080452,24.7559845 54.4270494,24.7559845 C54.0513155,24.7559845 53.0641444,24.7559845 52.5779517,23.9365192 C52.2970211,23.4799975 52.2970211,23.1013118 52.2970211,21.2446152 L52.329202,17.7638556 C51.780387,17.7638556 51.762992,17.7953398 51.1976517,17.811082 L51.1350294,17.7157546 C51.16808,17.2128811 51.16808,17.086944 51.16808,16.5831959 L51.2620135,16.4887431 C51.6073059,16.4887431 51.8116982,16.5036107 52.329202,16.4887431 C52.329202,15.3955397 52.2970211,15.2180035 52.2657099,14.583071 L52.3422483,14.4728761 C53.0484888,14.2988381 53.2207002,14.2516117 53.9417265,14.0312219 L54.0513155,14.1099325 C54.003479,15.1497876 53.9886932,15.3544353 53.9886932,16.5036107 C54.6470972,16.4887431 54.8358339,16.4887431 55.727332,16.4563843 L55.8073494,16.5517116 C55.7760383,16.9601324 55.7595129,17.1332959 55.7595129,17.6694028 L55.6812351,17.7638556 C54.8975864,17.7472389 54.803653,17.7314968 53.9730376,17.7314968 L53.9417265,20.6612819 C53.957382,20.851062 53.957382,21.7483633 53.957382,21.9678786 C53.957382,23.1179285 54.099152,23.4799975 54.8819309,23.4799975 C55.210698,23.4799975 55.462057,23.4021614 55.6351381,23.3383183 L55.7447271,23.4327711 Z M34.8725375,37.6851699 L33.9462492,37.700912 L33.8383997,37.6082084 C33.8540552,35.9946402 33.8688411,34.3644553 33.8688411,32.7508871 C33.8688411,31.0131309 33.8540552,29.2753748 33.8383997,27.5524863 L30.562905,27.6137056 L30.4559252,27.5218766 L30.5176778,26.7601324 L30.6246575,26.6831709 L32.2145684,26.7303973 L35.8771037,26.7303973 L38.0854099,26.6831709 L38.1784736,26.7601324 L38.1158513,27.5376187 L38.0236573,27.6137056 C36.8790607,27.5673538 36.5250707,27.5516117 34.8412264,27.5516117 C34.8412264,32.0993378 34.8586214,33.2161544 34.9647315,37.5775987 L34.8725375,37.6851699 Z M41.0029137,30.6706522 L40.8802783,30.7651049 C40.6637095,30.6400425 40.4941074,30.5622064 40.2297021,30.5622064 C39.8296151,30.5622064 39.5051968,30.7344953 39.2729724,30.9671289 C38.7485105,31.4953648 38.6554468,32.3008371 38.6554468,33.8068341 C38.6554468,34.9551349 38.7171994,36.4917416 38.7485105,37.5936907 L38.6554468,37.6855197 L37.7282888,37.703011 L37.635225,37.6076837 C37.667406,36.5687031 37.6830615,36.0422164 37.6830615,34.9691279 C37.6830615,33.2943403 37.6830615,31.4621314 37.5430311,29.9106572 L37.635225,29.8197026 L38.5475973,29.6788981 L38.6397913,29.7716017 L38.6250054,30.9968641 C38.7015438,30.7799725 38.7937378,30.5779485 38.9163731,30.3925412 C39.1799087,30.0059845 39.6904544,29.5853198 40.3236356,29.5853198 C40.5706458,29.5853198 40.7706893,29.6482884 41.0185693,29.740992 L41.1264188,29.8494378 L41.0029137,30.6706522 Z M42.1616003,30.1681284 L42.237269,30.0596827 C42.8556643,29.8121814 43.504501,29.5471889 44.523853,29.5471889 C45.6214829,29.5471889 46.2233529,29.8734008 46.5773429,30.2756997 C47.0252664,30.7724513 47.0252664,31.1144053 47.0252664,32.6352699 L47.0252664,33.5972889 C46.9939552,35.6918666 47.0252664,36.1273988 47.1183301,37.5713018 L47.0252664,37.6779985 L46.2076973,37.7243503 L46.098978,37.6325212 L46.0841922,37.0885432 C45.387519,37.6001624 44.6786693,37.8651549 43.8898021,37.8651549 C42.3459883,37.8651549 41.2640139,36.8873938 41.2640139,35.335045 C41.2640139,34.6231509 41.543205,33.9226262 42.0676669,33.4573588 C42.7634703,32.8372939 43.858491,32.6501374 44.7247663,32.511082 L46.0841922,32.309058 L46.0841922,32.107034 C46.0694064,31.6881184 46.0528811,31.3304223 45.9450315,31.0837956 C45.8519678,30.8975137 45.5127636,30.3692779 44.4307893,30.3692779 C43.412307,30.3692779 42.9339422,30.601037 42.237269,30.9587331 L42.1146336,30.8975137 L42.1616003,30.1681284 Z M45.2500978,33.208983 C43.8898021,33.4731009 43.3957817,33.5972889 42.9643836,33.9226262 C42.8400087,34.017079 42.237269,34.4666042 42.237269,35.2895677 C42.237269,36.0959145 42.7939117,37.0421914 44.060274,37.0421914 C45.0639704,37.0421914 45.589302,36.6232759 46.0841922,36.2034858 L46.0841922,33.0856697 L45.2500978,33.208983 Z M51.5359861,37.6773863 L50.2696238,37.7097451 L50.1304631,37.6170415 L48.4327028,32.4343828 L47.5359861,29.9042729 L47.6116547,29.7643428 L48.5857795,29.7031234 L48.7101544,29.7809595 C49.0650141,31.1146677 49.1589476,31.440005 50.099152,34.4047726 L50.9341161,37.0267116 L51.9369428,33.9071464 C52.5553381,31.9988506 52.6944988,31.5169665 53.1424223,29.857921 L53.2807132,29.7328586 L54.1765601,29.7328586 L54.2696238,29.8413043 L53.1737334,32.9136432 L52.4013916,35.225987 L51.6455751,37.5855572 L51.5359861,37.6773863 Z M63.1967819,37.6851699 L62.300935,37.700912 L62.2070015,37.6082084 L62.2070015,32.8444653 C62.2070015,28.2503873 62.1913459,28.2495127 62.0539248,26.2616317 L62.1478582,26.1698026 L63.1202435,26.0141304 L63.2124375,26.1077086 C63.1819961,27.8139805 63.164601,28.0955897 63.164601,29.6155797 C63.164601,32.2847451 63.1819961,34.9381684 63.2898456,37.5924663 L63.1967819,37.6851699 Z M61.0958904,33.5965017 L55.242444,33.5965017 C55.2580996,34.0932534 55.2720157,34.6372314 55.5825179,35.3036482 C56.261796,36.7632934 57.5446836,36.9950525 58.2239617,36.9950525 C59.6451402,36.9950525 60.446184,36.2971514 60.817569,35.9718141 L60.9419439,36.0487756 L60.8793216,36.9329585 L60.8027832,37.0877561 C60.1539465,37.4611944 59.4737987,37.8495002 58.1456838,37.8495002 C55.6286149,37.8495002 54.2700587,36.0636432 54.2700587,33.7215642 C54.2700587,31.2850325 55.6138291,29.5464018 57.8978039,29.5464018 C58.8562731,29.5464018 59.7669058,29.8113943 60.463579,30.7270615 C61.1585127,31.6409795 61.1741683,32.7131934 61.1889541,33.5037981 L61.0958904,33.5965017 Z M60.1696021,32.8058971 C60.1382909,32.3563718 60.1235051,31.8596202 59.7669058,31.3007746 C59.1345945,30.3230135 58.2526636,30.3072714 57.869102,30.3072714 C57.1585127,30.3072714 56.4627093,30.5705147 56,31.1153673 C55.4737987,31.7345577 55.3659491,32.4333333 55.3050663,32.8058971 L60.1696021,32.8058971 Z" id="Combined-Shape" fill="#00B7C3"></path>
            </g>
        </g>
    </g>
</svg>